<?xml version="1.0" encoding="UTF-8" standalone="no"?>
<svg
   xmlns:dc="http://purl.org/dc/elements/1.1/"
   xmlns:cc="http://creativecommons.org/ns#"
   xmlns:rdf="http://www.w3.org/1999/02/22-rdf-syntax-ns#"
   xmlns:svg="http://www.w3.org/2000/svg"
   xmlns="http://www.w3.org/2000/svg"
   xmlns:sodipodi="http://sodipodi.sourceforge.net/DTD/sodipodi-0.dtd"
   xmlns:inkscape="http://www.inkscape.org/namespaces/inkscape"
   width="220.000000pt"
   height="230.000000pt"
   viewBox="0 0 220.000000 230.000000"
   version="1.1"
   id="svg11831"
   sodipodi:docname="safari-pinned-tab.svg"
   inkscape:version="1.0.2 (e86c8708, 2021-01-15)">
  <metadata
     id="metadata11837">
    <rdf:RDF>
      <cc:Work
         rdf:about="">
        <dc:format>image/svg+xml</dc:format>
        <dc:type
           rdf:resource="http://purl.org/dc/dcmitype/StillImage" />
        <dc:title></dc:title>
      </cc:Work>
    </rdf:RDF>
  </metadata>
  <defs
     id="defs11835" />
  <sodipodi:namedview
     pagecolor="#ffffff"
     bordercolor="#666666"
     borderopacity="1"
     objecttolerance="10"
     gridtolerance="10"
     guidetolerance="10"
     inkscape:pageopacity="0"
     inkscape:pageshadow="2"
     inkscape:window-width="1440"
     inkscape:window-height="763"
     id="namedview11833"
     showgrid="false"
     inkscape:zoom="2.2711322"
     inkscape:cx="109.96568"
     inkscape:cy="145.56641"
     inkscape:window-x="0"
     inkscape:window-y="25"
     inkscape:window-maximized="0"
     inkscape:current-layer="svg11831" />
  <g
     transform="translate(0.000000,230.000000) scale(0.100000,-0.100000)"
     fill="#010101"
     stroke="none"
     id="g6369">
    <path
       d="m 1240,1984 c 0,-5 -28,-10 -62,-12 -34,-2 -65,-7 -69,-13 l -6,-10 -29,13 -29,12 -428,4 -428,3 1,-831 2,-832 36,6 c 21,3 160,6 310,6 h 272 v 15 15 l -287,2 -288,3 -8,75 c -8,85 -5,1485 4,1494 8,8 731,9 751,1 l 17,-7 -28,-24 c -16,-13 -33,-24 -39,-24 -13,0 -82,-66 -82,-79 v -11 H 630 410 v -25 -95 h 20 20 c -0.56304,27.058 -1.05098,48.2136 0.12822,79.7326 L 630,1750 h 179 l -15,-27 c -7,-16 -13.73369,-30.6368 -20.19326,-46.1292 C 768.30487,1663.6753 761.72372,1650.8031 758,1637 c -6.40946,-23.7587 -13.37098,-57.3911 -11,-73 l 12,-79 c 11,-78 51,-185 69,-185 5,0 15,-11 22,-25 7,-14 21,-25 31,-25 9,0 19,-8 21,-18 l 5,-17 59,-29 c 32,-16 67,-33 76,-37 17,-9 137,-42 223,-63 l 50,-12 -2,-49 c -3,-54 -52,-238 -65,-243 -4,-2 -8,-11 -8,-21 0,-21 -111,-137 -140,-146 l -20,-6 v 10 c 0,6 -5,11 -10,11 -22,0 -89,84 -113,142 -8,19 -18,59 -22,88 l -7,52 -87,-6 C 794,902 740,896 723,893 l -33,-5 v -37 c 0,-60 29,-161 64,-228 l 34,-63 H 619 450 v 555 555 h -20 -20 v -575 l 1,-575 h 207 l 207,-1 16,-12 c 9,-7 21,-21 27,-32 6,-11 32,-31 59,-45 26,-14 54,-30 61,-37 l 12,-12 -9,-5 c -5,-4 -43,-9 -85,-13 l -96,-3 v -15 -15 l 123,5 c 149,11 192,10 292,-4 l 90,-13 125,5 c 127,6 231,26 238,46 2,6 10,11 17,11 20,0 85,32 85,42 0,4 6,8 13,8 12,0 64,48 118,110 16,19 33,47 36,63 3,15 9,27 13,27 8,0 26,64 35,127 4,23 3,67 0,97 l -7,56 h -17 -16 v -98 -98 l -29,-64 c -16,-35 -40,-76 -55,-91 -14,-15 -37,-41 -51,-58 -13,-17 -28,-31 -33,-31 -5,0 -35,-16 -68,-35 -32,-18 -78,-40 -101,-46 -24,-7 -48,-16 -53,-20 -6,-4 -91,-6 -190,-5 l -180,3 -60,17 c -67,19 -186,74 -197,92 -4,6 -21,17 -36,23 -16,7 -35,22 -41,34 -10,19 -46,73 -68,102 -12,16 -34,75 -48,132 -7,28 -16,56 -19,61 -11,18 19,29 95,35 l 76,7 6,-48 c 3,-26 15,-68 27,-94 22,-51 92,-128 115,-128 8,0 15,-4 15,-8 0,-12 93,-51 163,-67 l 62,-15 h 106 107 l 53,16 c 75,23 129,46 129,56 0,4 13,14 29,23 16,8 32,24 36,35 3,11 13,27 21,35 8,8 20,41 26,73 l 11,58 -16,55 -16,55 -29,32 c -16,18 -34,32 -40,32 -5,0 -12,3 -14,8 -1,4 -25,19 -53,34 l -50,27 -3,77 c -2,42 -1,83 2,90 l 5,13 33,-11 c 18,-6 39,-17 46,-24 7,-7 28,-18 47,-25 19,-7 35,-17 35,-21 0,-4 7,-8 15,-8 9,0 25,-9 37,-20 12,-11 28,-20 35,-20 7,0 13,-6 13,-13 0,-7 15,-31 33,-53 19,-21 42,-56 52,-76 9,-21 24,-38 31,-38 h 14 v 20 c 0,38 -51,122 -105,172 -61,57 -134,98 -250,141 l -40,15 -9,48 c -4,27 -11,56 -14,64 -3,8 -4,19 -3,23 1,5 -8,43 -19,85 -21,75 -87,222 -100,222 -4,0 -12,11 -18,25 l -12,25 h 36 36 l 71,-34 72,-34 18,-31 c 10,-17 23,-36 30,-43 16,-16 37,-86 37,-122 v -26 h 44 c 24,0 58.9991,1.1158 76.2179,2.3463 L 1860,1474.4747 V 1496 v 14 h -55 -54 l -7,38 c -9,47 -27,83 -73,142 -36,47 -49,55 -145,94 l -51,20 h -125 -125 l -57,-18 c -32,-10 -58,-23 -58,-27 0,-5 -11,-9 -24,-9 h -24 l -40,-39 -40,-39 -17,-52 -17,-52 5,-43 c 8,-53 38,-106 80,-137 33,-25 181,-78 217,-78 11,0 20,-4 20,-10 0,-5 9,-10 20,-10 h 20 l 11,-27 10,-26 -7,-59 -7,-58 h -11 c -6,0 -52,11 -103,25 -50,14 -95,24 -100,23 -9,-2 -124,54 -145,71 -7,6 -26,22 -42,36 -16,14 -32,25 -35,25 -4,0 -17,20 -31,45 -14,25 -27,45 -30,45 -4,0 -12,35 -19,78 l -12,77 4.03259,52.3225 c 5,28 19.96741,61.6775 22.96741,77.6775 4,17 11,35 18,40 6,6 19,22 29,37 18,28 58,68 112,111 27,21 51,31 165,67 52,17 221,23 340,12 l 104,-9 4,-12 c 2,-6 8,-11 14,-11 20,0 118,-50 118,-60 0,-6 6,-10 13,-10 20,0 84,-61 92,-87 3,-13 10,-23 15,-23 11,0 58,-120 66,-170 l 7,-45.4805 -17.6089,-1.2179 L 1860,1510 v -14 -21.5253 l 54.3911,2.609 30,0.6089 L 1948,1525 c 4,42 -25,155 -40,155 -4,0 -8,9 -8,21 0,11 -17,45 -37,74 l -37,53 -51,33 c -27,19 -52,36 -55,39 -3,3 -27,17 -55,32 -64,34 -138,47 -297,55 l -128,6 z m 111,-227 c 8,-7 18,-19 22,-27 4,-8 23,-35 42,-60 19,-25 38,-52 41,-60 3,-8 10,-24 15,-35 14,-32 56,-205 64,-265 4,-30 13,-58 19,-62 l 11,-8 h -13 -12 l 1,-87 c 1,-118 -31,-307 -66,-388 -7,-16 -16,-40 -20,-52 -3,-13 -11,-23 -16,-23 -5,0 -9,-9 -9,-20 0,-11 -4,-20 -9,-20 -6,0 -20,-18 -32,-39 -12,-21 -32,-45 -45,-51 l -23,-13 -53,12 c -29,6 -62,13 -73,14 -11,1 -25,6 -31,12 l -11,10 18,13 c 11,7 19,20 19,28 0,8 6,14 13,14 6,0 27,21 44,48 35,51 86,180 79,199 -3,6 -1,13 4,15 14,5 30,150 30,269 v 110 l -16,77 c -9,42 -23,97 -31,122 -19,56 -63,129 -83,135 -8,3 -21,19 -29,36 -7,17 -27,39 -43,49 l -29,17 18,8 c 25,11 132,33 163,34 14,0 32,-5 41,-12 z m -239,-69 c 12,-7 31,-24 43,-36 11,-13 36,-40 56,-60 l 36,-37 26,-85 c 14,-47 29,-97 33,-112 l 6,-28 h -8 c -5,0 -40,12 -79,26 -38,14 -84,29 -100,33 -17,4 -43,15 -59,23 l -28,15 -28,59 -27,59 9,18 c 5,10 7,25 4,33 -3,8 -1,14 4,14 5,0 11,8 15,19 7,24 51,71 65,71 5,0 20,-6 32,-12 z m 540,-724 c 21,-13 42,-24 48,-24 5,0 10,-5 10,-12 0,-6 10,-25 23,-42 12,-17 22,-40 22,-51 -1,-11 3,-22 7,-26 13,-9 -47,-169 -63,-169 -5,0 -25,-11 -45,-25 -44,-30 -153,-65 -211,-69 -24,-1 -43,-1 -43,1 0,3 11,19 24,36 45,59 94,171 120,274 14,56 26,111 26,123 v 21 l 23,-7 c 12,-4 39,-18 59,-30 z"
       id="path6367"
       sodipodi:nodetypes="sscccccccccsccccccscccsscccccccccccaascsssccccccccsccssccccccscccccccccccccscscccccccccccsssccsccccccccccsccccccccccccccccsscccccsccscccccsccccccssssssssccscsccccsccscccccccsscssccccccccccccsscccccccssscccccscccssssccccccccccsssscscccccccccsscccscccscssscscccccccsssscccscccsscccscccccccccccccccccsccccccssscsccsscccsccsccsccc" />
  </g>
</svg>
