<?xml version="1.0" encoding="UTF-8" standalone="no"?>
<svg
   xmlns:dc="http://purl.org/dc/elements/1.1/"
   xmlns:cc="http://creativecommons.org/ns#"
   xmlns:rdf="http://www.w3.org/1999/02/22-rdf-syntax-ns#"
   xmlns:svg="http://www.w3.org/2000/svg"
   xmlns="http://www.w3.org/2000/svg"
   xmlns:sodipodi="http://sodipodi.sourceforge.net/DTD/sodipodi-0.dtd"
   xmlns:inkscape="http://www.inkscape.org/namespaces/inkscape"
   width="220.000000pt"
   height="230.000000pt"
   viewBox="0 0 220.000000 230.000000"
   version="1.1"
   id="svg13087"
   sodipodi:docname="e5f1ae60-3e61-4c3c-83d9-bee5b9f2b7b6.svg"
   inkscape:version="1.0.2 (e86c8708, 2021-01-15)">
  <metadata
     id="metadata13093">
    <rdf:RDF>
      <cc:Work
         rdf:about="">
        <dc:format>image/svg+xml</dc:format>
        <dc:type
           rdf:resource="http://purl.org/dc/dcmitype/StillImage" />
      </cc:Work>
    </rdf:RDF>
  </metadata>
  <defs
     id="defs13091" />
  <sodipodi:namedview
     pagecolor="#ffffff"
     bordercolor="#666666"
     borderopacity="1"
     objecttolerance="10"
     gridtolerance="10"
     guidetolerance="10"
     inkscape:pageopacity="0"
     inkscape:pageshadow="2"
     inkscape:window-width="1440"
     inkscape:window-height="900"
     id="namedview13089"
     showgrid="false"
     inkscape:zoom="1.901087"
     inkscape:cx="146.66667"
     inkscape:cy="153.33333"
     inkscape:window-x="0"
     inkscape:window-y="0"
     inkscape:window-maximized="0"
     inkscape:current-layer="svg13087" />
  <g
     transform="translate(0.000000,230.000000) scale(0.100000,-0.100000)"
     fill="#1f1f1f"
     stroke="none"
     id="g13085">
    <path
       d="M1200 1978 c-30 -7 -82 -11 -115 -10 -33 1 -248 4 -477 8 -418 5 -418 5 -418 -820 0 -826 0 -826 378 -826 295 0 392 4 447 15 64 14 76 14 145 -2 54 -13 117 -18 225 -18 129 0 161 3 225 23 160 50 277 141 337 263 44 88 59 179 45 263 -15 94 -53 169 -115 229 -59 58 -162 116 -248 141 -56 17 -56 17 -62 84 -12 138 -62 278 -139 390 -16 24 -27 46 -24 49 8 9 115 -16 151 -35 84 -43 131 -106 151 -202 11 -55 11 -55 124 -52 63 1 116 5 119 8 11 11 -21 148 -48 209 -17 37 -52 89 -82 121 -104 109 -242 162 -444 169 -70 2 -143 -1 -175 -7z m335 -45 c155 -34 273 -120 334 -244 19 -39 34 -89 38 -122 6 -57 6 -57 -66 -58 -39 -1 -76 -2 -82 -3 -7 -1 -18 23 -25 51 -7 29 -24 70 -38 91 -34 54 -99 108 -155 128 -61 22 -252 30 -332 15 -78 -16 -147 -45 -182 -79 -40 -38 -67 -102 -67 -160 0 -107 51 -165 185 -210 50 -17 109 -36 133 -42 40 -10 42 -12 44 -53 5 -108 5 -128 -4 -133 -13 -8 -256 65 -319 97 -31 15 -77 48 -103 74 -61 59 -97 138 -104 226 -10 146 56 273 185 355 53 35 156 68 259 83 73 11 206 4 299 -16z m-527 4 c9 -7 1 -15 -28 -29 -23 -12 -65 -43 -95 -69 -53 -49 -53 -49 -264 -49 -211 0 -211 0 -211 -635 0 -635 0 -635 206 -635 206 0 206 0 250 -39 24 -21 69 -51 99 -67 46 -24 52 -30 37 -39 -10 -6 -163 -11 -394 -13 -378 -4 -378 -4 -378 793 0 797 0 797 383 793 210 -1 388 -7 395 -11z m380 -220 c54 -72 87 -140 116 -240 48 -167 56 -367 20 -547 -27 -142 -101 -305 -164 -365 -25 -24 -29 -25 -85 -14 -32 6 -76 18 -97 26 -38 15 -38 15 4 53 93 82 150 223 169 421 10 97 10 150 1 230 -6 57 -20 133 -31 169 -28 91 -89 187 -149 237 -29 23 -48 44 -43 47 22 14 121 35 167 35 51 1 52 0 92 -52z m-583 26 c-35 -87 -45 -133 -45 -209 0 -120 25 -181 109 -264 42 -42 90 -77 131 -97 36 -18 124 -47 194 -65 128 -33 128 -33 122 -95 -8 -73 -39 -179 -72 -245 -27 -54 -73 -109 -116 -139 -29 -21 -29 -21 -68 5 -21 14 -50 41 -65 60 -28 37 -65 140 -65 181 0 13 -3 26 -7 28 -11 7 -216 -14 -226 -22 -4 -4 -1 -45 7 -90 10 -54 28 -110 54 -162 39 -79 39 -79 -139 -79 -179 0 -179 0 -179 605 0 605 0 605 186 605 173 0 186 -1 179 -17z m349 -84 c56 -49 101 -121 132 -206 27 -78 31 -123 10 -123 -26 0 -200 61 -234 82 -64 39 -91 141 -56 211 25 50 63 85 85 80 10 -3 39 -23 63 -44z m563 -485 c176 -87 251 -207 241 -390 -4 -70 -10 -94 -41 -158 -27 -53 -53 -89 -93 -125 -31 -27 -84 -63 -118 -80 -93 -45 -183 -63 -321 -63 -236 -1 -397 52 -511 166 -72 73 -120 164 -136 259 -6 37 -9 70 -6 72 3 3 40 6 83 8 77 2 77 2 91 -50 20 -76 46 -124 99 -175 54 -53 158 -101 260 -119 84 -14 231 -7 307 15 75 22 145 71 183 127 24 36 30 57 33 112 5 88 -16 145 -70 191 -22 20 -65 45 -95 58 -45 19 -53 26 -49 43 3 11 6 51 6 89 0 69 0 69 32 62 18 -3 65 -23 105 -42z m-94 -187 c47 -20 95 -64 117 -108 23 -45 26 -116 7 -162 -22 -50 -65 -96 -118 -123 -54 -27 -156 -54 -207 -54 -33 0 -33 0 -4 43 66 95 120 231 141 351 6 33 11 61 11 63 0 7 22 2 53 -10z"
       id="path13083" />
  </g>
</svg>
